<?xml version="1.0" encoding="utf-8"?>
<!-- Generator: Adobe Illustrator 16.0.0, SVG Export Plug-In . SVG Version: 6.00 Build 0)  -->
<!DOCTYPE svg PUBLIC "-//W3C//DTD SVG 1.1//EN" "http://www.w3.org/Graphics/SVG/1.1/DTD/svg11.dtd">
<svg version="1.1" id="Layer_1" xmlns="http://www.w3.org/2000/svg" xmlns:xlink="http://www.w3.org/1999/xlink" x="0px" y="0px"
	 width="897.089px" height="853.218px" viewBox="0 0 897.089 853.218" enable-background="new 0 0 897.089 853.218"
	 xml:space="preserve">
<circle fill="#BF0411" cx="445.228" cy="416.218" r="350"/>
<g>
	<path fill="#FFFFFF" d="M326.365,727.436c-4.07,1.725-8.789,1.456-14.157-0.81c-5.367-2.265-8.854-5.457-10.458-9.576
		c-2.294-5.189-2.017-11.155,0.828-17.9c2.903-6.88,6.985-11.24,12.244-13.083c4.071-1.727,8.79-1.456,14.156,0.81
		c5.37,2.265,8.853,5.455,10.459,9.574c2.333,5.046,2.05,11.01-0.852,17.889C335.737,721.085,331.665,725.448,326.365,727.436z
		 M323.868,719.658c2.793-1.522,5.083-4.398,6.866-8.628c1.779-4.214,2.239-7.855,1.385-10.928s-2.836-5.265-5.946-6.576
		c-3.107-1.311-6.074-1.21-8.891,0.302c-2.82,1.513-5.121,4.383-6.906,8.612c-1.786,4.229-2.236,7.883-1.352,10.957
		c0.883,3.074,2.881,5.267,5.989,6.578C318.123,721.286,321.073,721.179,323.868,719.658z"/>
	<path fill="#FFFFFF" d="M347.848,738.152l-8.086-2.495l12.008-38.955l8.088,2.493L347.848,738.152z"/>
	<path fill="#FFFFFF" d="M367.261,701.52l8.319,1.819l-7.132,32.665l19.888,4.344l-1.565,7.159l-28.206-6.16L367.261,701.52z"/>
	<path fill="#FFFFFF" d="M420.171,738.631c0.178,1.872,0.629,3.286,1.356,4.242c1.334,1.743,3.711,2.691,7.134,2.853
		c2.05,0.095,3.723-0.049,5.023-0.432c2.465-0.735,3.751-2.254,3.858-4.556c0.062-1.344-0.484-2.412-1.636-3.204
		c-1.158-0.773-3.011-1.497-5.566-2.169l-4.364-1.172c-4.289-1.157-7.217-2.338-8.787-3.536c-2.657-2.006-3.893-5.007-3.706-9.005
		c0.169-3.646,1.652-6.614,4.45-8.902c2.797-2.286,6.796-3.31,11.996-3.068c4.346,0.202,7.998,1.511,10.96,3.927
		c2.961,2.418,4.414,5.795,4.363,10.128l-8.175-0.379c-0.037-2.455-1.052-4.247-3.045-5.374c-1.328-0.743-3-1.163-5.021-1.258
		c-2.247-0.104-4.061,0.256-5.444,1.075c-1.38,0.823-2.108,2.024-2.181,3.61c-0.068,1.455,0.544,2.573,1.832,3.351
		c0.826,0.519,2.605,1.163,5.333,1.938l7.067,2.018c3.1,0.884,5.4,1.978,6.905,3.284c2.338,2.027,3.425,4.855,3.255,8.483
		c-0.173,3.719-1.754,6.742-4.743,9.067c-2.992,2.326-7.113,3.367-12.361,3.122c-5.363-0.25-9.522-1.654-12.481-4.22
		c-2.959-2.563-4.339-5.964-4.144-10.201L420.171,738.631z"/>
	<path fill="#FFFFFF" d="M482.833,716.242l-21.504,1.703l0.682,8.627l19.74-1.563l0.561,7.058l-19.739,1.563l0.826,10.45
		l22.498-1.783l0.579,7.308l-30.794,2.439l-3.223-40.639l29.804-2.361L482.833,716.242z"/>
	<path fill="#FFFFFF" d="M500.244,705.693l9.425-2.012l22.608,36.861l-9.033,1.927l-4.38-7.636l-14.683,3.132l-0.953,8.771
		l-8.713,1.858L500.244,705.693z M504.984,730.613l10.211-2.179l-8.383-14.613L504.984,730.613z"/>
	<path fill="#FFFFFF" d="M527.793,699.118l8.042-2.803l11.01,31.571l19.22-6.703l2.413,6.919l-27.262,9.508L527.793,699.118z"/>
	<path fill="#FFFFFF" d="M577.529,710.228c1.056,1.556,2.132,2.577,3.229,3.066c2.007,0.884,4.549,0.576,7.625-0.933
		c1.842-0.901,3.242-1.835,4.194-2.796c1.81-1.828,2.208-3.777,1.192-5.85c-0.592-1.208-1.585-1.882-2.977-2.02
		c-1.384-0.121-3.358,0.136-5.922,0.776l-4.391,1.07c-4.316,1.049-7.45,1.423-9.401,1.128c-3.296-0.481-5.822-2.519-7.581-6.111
		c-1.608-3.278-1.734-6.592-0.384-9.943c1.352-3.354,4.367-6.174,9.041-8.465c3.905-1.911,7.738-2.521,11.498-1.828
		c3.758,0.695,6.659,2.954,8.697,6.78L585,688.705c-1.215-2.135-2.964-3.217-5.255-3.247c-1.52-0.014-3.189,0.425-5.005,1.314
		c-2.021,0.99-3.438,2.177-4.255,3.562c-0.814,1.385-0.876,2.789-0.178,4.214c0.641,1.308,1.714,1.993,3.217,2.057
		c0.976,0.059,2.844-0.232,5.605-0.866l7.167-1.633c3.142-0.717,5.688-0.864,7.634-0.444c3.026,0.654,5.337,2.611,6.937,5.872
		c1.638,3.345,1.705,6.755,0.203,10.234c-1.503,3.477-4.615,6.37-9.334,8.682c-4.82,2.361-9.144,3.13-12.973,2.305
		c-3.828-0.823-6.675-3.141-8.54-6.95L577.529,710.228z"/>
</g>
<circle fill="#FFFFFF" cx="445.228" cy="416.218" r="273.291"/>
<g>
	<path fill="#BF0411" d="M480.258,290.777v6.06c-2.29,0.32-4.233,1.442-5.807,3.369c-1.601,1.947-3.002,4.948-4.219,8.917
		c-0.371,1.343-2.265,9.711-5.761,25.177l-38.8,181.769h-3.545L391.447,374.11l-33.771,141.958h-3.393l-40.694-179.775
		c-4.137-18.127-7.053-29.037-8.708-32.805c-1.615-3.842-4.377-6.048-8.285-6.651v-6.06h53.652v6.06
		c-4.293,0.214-7.187,1.377-8.59,3.489c-1.435,2.102-2.152,4.705-2.152,7.871c0,4.086,1.493,12.8,4.462,26.102l24.314,106.884
		l19.426-83.479l-5.11-23.405c-2.8-12.75-4.979-21.28-6.511-25.55c-1.494-4.267-3.229-7.335-5.238-9.138
		c-1.952-1.894-4.873-2.773-8.71-2.773v-6.06h59.986v6.06c-4.211,0.106-7.203,0.654-9.03,1.77c-1.287,0.77-2.28,2.057-3.029,3.82
		c-0.731,1.77-1.101,3.827-1.101,6.094c0,2.504,1.376,10.097,4.13,22.902l22.55,104.262l20.15-94.401
		c2.135-9.698,3.441-16.337,3.944-19.954c0.496-3.546,0.736-6.875,0.736-9.924c0-4.431-0.869-7.918-2.545-10.468
		c-1.717-2.485-4.986-3.888-9.802-4.102v-6.06H480.258z"/>
	<path fill="#0065AB" d="M565.845,395.781c11.76,4.826,20.01,10.743,24.739,17.684c6.823,9.865,10.227,22.611,10.227,38.289
		c0,16.593-3.739,30.278-11.215,41.084c-9.193,13.136-22.557,19.677-40.067,19.677h-62.921v-5.989c5.729,0,9.604-0.929,11.661-2.881
		c2.023-1.874,3.447-4.307,4.26-7.367c0.846-3.042,1.248-10.476,1.248-22.379V330.985c0-11.923-0.402-19.406-1.248-22.509
		c-0.812-3.1-2.266-5.559-4.341-7.368c-2.049-1.899-5.916-2.774-11.58-2.774v-6.052h59.326c14.181,0,24.254,2.276,30.128,6.771
		c5.928,4.496,10.579,11.195,13.97,20.121c3.418,8.928,5.109,18.461,5.109,28.497c0,10.639-2.144,20.066-6.482,28.375
		C584.362,384.295,576.752,390.894,565.845,395.781L565.845,395.781z M532.638,391.339c8.629,0,14.988-1.713,19.103-5.154
		c4.114-3.5,7.245-8.364,9.46-14.632c2.188-6.278,3.284-14.296,3.284-24.053c0-9.706-1.097-17.681-3.245-23.958
		c-2.152-6.197-5.234-10.908-9.26-14.181c-4.021-3.276-10.471-4.824-19.342-4.705V391.339L532.638,391.339z M532.638,404.037v70.623
		l-0.102,8.15c0,5.814,0.805,10.256,2.486,13.235c1.689,2.935,4.154,4.436,7.465,4.436c4.852,0,9.328-1.874,13.46-5.754
		c4.111-3.82,7.245-9.425,9.424-16.74c2.222-7.268,3.308-15.416,3.308-24.398c0-10.312-1.336-19.563-4.014-27.714
		c-2.681-8.146-6.35-13.844-11.055-17.119C548.924,405.485,541.914,403.933,532.638,404.037z"/>
	<rect x="301.138" y="522.257" fill-rule="evenodd" clip-rule="evenodd" fill="#0065AB" width="299.713" height="42.085"/>
	<rect x="301.341" y="575.317" fill-rule="evenodd" clip-rule="evenodd" fill="#BF0411" width="299.697" height="42.094"/>
	<path fill="#FFFFFF" d="M307.38,585.476h6.687l2.661,19.202h0.322l3.012-19.202h7.628l2.803,19.202h0.34l2.814-19.202h6.679
		l-5.633,24.3h-7.438l-3.23-18.678h-0.199l-3.263,18.678h-7.68L307.38,585.476L307.38,585.476z M343.607,585.476h6.957v24.3h-6.957
		V585.476L343.607,585.476z M356.074,585.476h6.97v19.323h11.304v4.977h-18.274V585.476L356.074,585.476z M377.876,585.476h6.972
		v19.323h11.283v4.977h-18.255V585.476L377.876,585.476z M391.273,585.476l9.413,15.552v8.748h6.786v-8.748l9.48-15.552h-7.504
		l-5.355,9.797l-5.353-9.797H391.273L391.273,585.476z M437.291,599.528v5.271h5.495c1.059,0,1.866-0.204,2.419-0.646
		c0.532-0.446,0.808-1.099,0.808-1.979c0-0.847-0.276-1.497-0.845-1.95c-0.557-0.46-1.35-0.697-2.383-0.697H437.291L437.291,599.528
		z M437.291,590.391v4.488h4.099c1.149,0,2.024-0.188,2.59-0.556c0.578-0.377,0.845-0.937,0.845-1.697
		c0-0.779-0.262-1.346-0.816-1.701c-0.561-0.355-1.426-0.534-2.619-0.534H437.291L437.291,590.391z M430.641,585.476h10.64
		c1.487,0,2.764,0.052,3.828,0.159c1.079,0.124,1.918,0.289,2.547,0.532c1.132,0.411,2.031,1.114,2.711,2.073
		c0.644,0.954,0.975,2.046,0.975,3.263c0,1.329-0.368,2.443-1.113,3.356c-0.767,0.932-1.779,1.536-3.076,1.831l-0.071,0.106
		c1.77,0.105,3.191,0.691,4.244,1.721c1.05,1.047,1.579,2.381,1.579,4.007c0,2.314-0.875,4.094-2.611,5.379
		c-1.751,1.249-4.228,1.872-7.449,1.872h-12.203V585.476L430.641,585.476z M457.243,585.476h6.802v14.559
		c0,1.814,0.414,3.16,1.225,4.1c0.824,0.923,2.03,1.387,3.628,1.387c1.571,0,2.782-0.462,3.595-1.385
		c0.818-0.91,1.217-2.285,1.217-4.102v-14.559h6.82v14.627c0,1.748-0.122,3.129-0.371,4.143c-0.247,1.023-0.66,1.909-1.24,2.666
		c-0.905,1.208-2.197,2.088-3.879,2.697c-1.68,0.593-3.729,0.903-6.142,0.903c-2.421,0-4.474-0.311-6.165-0.903
		c-1.694-0.609-2.984-1.489-3.885-2.697c-0.588-0.757-1.007-1.646-1.247-2.676c-0.235-1.01-0.358-2.387-0.358-4.133V585.476
		L457.243,585.476z M506.965,592.493h-6.798c0-1.16-0.386-2.059-1.191-2.708c-0.809-0.641-1.912-0.977-3.341-0.977
		c-1.053,0-1.919,0.249-2.595,0.756c-0.652,0.493-0.984,1.14-0.984,1.903c0,1.281,1.773,2.246,5.286,2.884
		c1.14,0.207,2.032,0.363,2.671,0.497c2.772,0.57,4.781,1.435,6.012,2.573c1.245,1.167,1.859,2.732,1.859,4.723
		c0,2.471-1.066,4.475-3.21,6.036c-2.136,1.542-4.938,2.332-8.429,2.332c-3.681,0-6.543-0.713-8.566-2.128
		c-2.016-1.428-3.027-3.422-3.027-6.022v-0.147h6.859v0.419c0,1.188,0.407,2.111,1.227,2.736c0.795,0.626,1.977,0.931,3.539,0.931
		c1.415,0,2.564-0.284,3.422-0.856c0.855-0.571,1.291-1.336,1.291-2.269c0-0.371-0.092-0.715-0.242-1.012
		c-0.189-0.314-0.428-0.546-0.734-0.738c-0.594-0.332-1.744-0.625-3.467-0.887c-1.731-0.261-3.014-0.5-3.881-0.723
		c-2.713-0.652-4.625-1.534-5.738-2.589c-1.098-1.066-1.664-2.56-1.664-4.471c0-2.493,0.977-4.449,2.924-5.879
		c1.941-1.401,4.639-2.12,8.09-2.12c3.254,0,5.817,0.678,7.66,2.018C505.8,588.119,506.818,590.018,506.965,592.493L506.965,592.493
		z M535.951,593.277h-7.367c-0.334-1.157-0.851-2.043-1.586-2.614c-0.707-0.566-1.662-0.854-2.805-0.854
		c-1.797,0-3.222,0.711-4.295,2.117c-1.076,1.426-1.605,3.322-1.605,5.688c0,2.354,0.556,4.245,1.678,5.674
		c1.112,1.414,2.598,2.127,4.408,2.127c1.256,0,2.303-0.355,3.125-1.07c0.838-0.723,1.314-1.705,1.457-2.925h7.332
		c-0.515,2.799-1.891,5.022-4.102,6.641c-2.197,1.629-4.941,2.452-8.201,2.452c-1.878,0-3.595-0.283-5.119-0.835
		c-1.554-0.565-2.93-1.402-4.182-2.517c-1.282-1.157-2.238-2.521-2.877-4.07c-0.623-1.556-0.929-3.378-0.929-5.452
		c0-3.957,1.213-7.096,3.661-9.414c2.431-2.304,5.751-3.467,9.906-3.467c3.092,0,5.635,0.736,7.656,2.231
		C534.108,588.5,535.398,590.589,535.951,593.277L535.951,593.277z M539.998,585.476h6.793v9.238h8.517v-9.238h6.832v24.3h-6.832
		v-10.083h-8.517v10.083h-6.793V585.476z"/>
	<path fill="#0065AB" d="M298.831,279.757v-55.212h20.121c5.046,0,8.722,0.495,11.027,1.489c2.29,1.008,4.123,2.75,5.503,5.28
		c1.378,2.565,2.073,5.457,2.073,8.712c0,4.143-1.052,7.573-3.142,10.268c-2.089,2.682-5.205,4.395-9.365,5.088
		c2.075,1.428,3.779,2.956,5.14,4.646c1.326,1.68,3.15,4.673,5.414,8.967l5.79,10.763h-11.428l-6.903-12.018
		c-2.453-4.274-4.139-6.993-5.046-8.103c-0.904-1.134-1.862-1.886-2.881-2.3c-1.004-0.418-2.606-0.607-4.795-0.607h-1.93v23.028
		H298.831L298.831,279.757z M308.408,247.893h7.04c4.604,0,7.47-0.222,8.609-0.676c1.138-0.44,2.03-1.233,2.666-2.33
		c0.646-1.104,0.97-2.483,0.97-4.147c0-1.866-0.424-3.355-1.27-4.496c-0.849-1.14-2.034-1.86-3.596-2.179
		c-0.775-0.108-3.103-0.167-6.971-0.167h-7.449V247.893L308.408,247.893z M346.554,279.757v-55.212h35.09v9.354H356.11v12.23h23.752
		v9.297H356.11v15.021h26.429v9.309H346.554L346.554,279.757z M401.3,279.757v-45.858h-14.034v-9.354h37.599v9.354h-13.999v45.858
		H401.3L401.3,279.757z M431.028,279.757v-55.212h35.106v9.354h-25.548v12.23h23.763v9.297h-23.763v15.021h26.435v9.309H431.028
		L431.028,279.757z M475.214,279.757v-55.212h9.292l19.387,36.865v-36.865h8.868v55.212h-9.58l-19.08-36.006v36.006H475.214
		L475.214,279.757z M522.865,279.757v-55.212h35.098v9.354h-25.537v12.23h23.763v9.297h-23.763v15.021h26.434v9.309H522.865
		L522.865,279.757z M564.556,261.805l9.293-1.063c0.558,3.646,1.68,6.325,3.4,8.022c1.711,1.709,4.016,2.569,6.925,2.569
		c3.07,0,5.407-0.754,6.945-2.288c1.567-1.522,2.351-3.296,2.351-5.328c0-1.308-0.331-2.42-0.987-3.339
		c-0.654-0.905-1.798-1.709-3.44-2.371c-1.106-0.461-3.676-1.265-7.651-2.432c-5.121-1.483-8.714-3.292-10.782-5.459
		c-2.9-3.037-4.362-6.732-4.362-11.11c0-2.815,0.689-5.436,2.062-7.893c1.356-2.436,3.338-4.31,5.9-5.587
		c2.583-1.271,5.671-1.917,9.319-1.917c5.94,0,10.406,1.513,13.425,4.543c2.989,3.043,4.566,7.097,4.715,12.181l-9.556,0.481
		c-0.399-2.834-1.282-4.868-2.64-6.123c-1.33-1.238-3.362-1.854-6.043-1.854c-2.776,0-4.96,0.646-6.525,2
		c-1,0.831-1.513,1.974-1.513,3.404c0,1.32,0.477,2.43,1.416,3.367c1.205,1.174,4.137,2.414,8.788,3.677
		c4.639,1.291,8.069,2.62,10.31,3.978c2.218,1.385,3.966,3.237,5.228,5.618c1.267,2.385,1.895,5.315,1.895,8.796
		c0,3.155-0.762,6.129-2.263,8.889c-1.506,2.771-3.632,4.809-6.385,6.156c-2.761,1.344-6.198,2.017-10.304,2.017
		c-5.986,0-10.574-1.595-13.795-4.846C567.091,272.687,565.166,267.979,564.556,261.805z"/>
</g>
</svg>
